<?xml version="1.0" encoding="utf-8"?>
<!-- Generator: Adobe Illustrator 15.1.0, SVG Export Plug-In . SVG Version: 6.00 Build 0)  -->
<!DOCTYPE svg PUBLIC "-//W3C//DTD SVG 1.1//EN" "http://www.w3.org/Graphics/SVG/1.1/DTD/svg11.dtd">
<svg version="1.1" id="圖層_1" xmlns="http://www.w3.org/2000/svg" xmlns:xlink="http://www.w3.org/1999/xlink" x="0px" y="0px"
	 width="49.918px" height="44.333px" viewBox="0 0 49.918 44.333" enable-background="new 0 0 49.918 44.333" xml:space="preserve">
<path id="head" fill="#E52D8A" d="M24.959,0c15.386,8.32,24.959,15.158,24.959,26.099S37.438,44.333,24.959,44.333S0,35.33,0,25.757
	S7.864,8.775,24.959,0z"/>
<ellipse id="face" fill="#FFFFFF" cx="24.959" cy="33.45" rx="14.531" ry="9.63"/>
<circle id="right-eye" fill="#231815" cx="14.825" cy="32.538" r="2.45"/>
<circle id="left-eye" fill="#231815" cx="35.453" cy="32.538" r="2.45"/>
<ellipse id="right-rouge" fill="#F6C7CE" cx="35.453" cy="36.812" rx="2.08" ry="0.513"/>
<ellipse id="left-rouge" fill="#F6C7CE" cx="14.825" cy="36.812" rx="2.08" ry="0.513"/>
<polygon id="start" fill="#FFFFFF" points="10.3,27.559 7.977,27.359 6.495,29.159 5.967,26.889 3.797,26.036 5.794,24.832 
	5.935,22.505 7.697,24.032 9.953,23.446 9.045,25.594 "/>
<polygon id="start_x5F_s" fill="#FFFFFF" points="14.547,24.716 13.664,23.911 12.499,24.182 12.992,23.092 12.375,22.068 
	13.563,22.201 14.346,21.297 14.587,22.468 15.689,22.933 14.649,23.524 "/>
<path id="mouth" fill="none" stroke="#E52D8A" stroke-width="0.4559" stroke-linecap="round" stroke-linejoin="round" stroke-miterlimit="10" d="
	M21.996,34.19c0.242,1.068,2.223,2.564,3.362,0c1.083,2.621,3.006,1.097,3.205,0"/>
</svg>
